<svg version="1.1" id="Layer_1" xmlns="http://www.w3.org/2000/svg" xmlns:xlink="http://www.w3.org/1999/xlink" x="0px" y="0px"
	 width="100%" viewBox="0 0 128 128" enable-background="new 0 0 128 128" xml:space="preserve">
<path fill="#000000" opacity="1.000000" stroke="none" 
	d="
M78.000000,129.000000 
	C52.000000,129.000000 26.500000,129.000000 1.000000,129.000000 
	C1.000000,86.333336 1.000000,43.666668 1.000000,1.000000 
	C43.666668,1.000000 86.333336,1.000000 129.000000,1.000000 
	C129.000000,43.666668 129.000000,86.333336 129.000000,129.000000 
	C112.166664,129.000000 95.333336,129.000000 78.000000,129.000000 
M44.358406,112.528587 
	C45.247662,112.589661 46.136917,112.650734 47.900448,112.848114 
	C50.257168,112.795815 52.613884,112.743523 55.767536,112.853615 
	C56.846630,112.802544 57.925724,112.751465 59.910347,112.857590 
	C63.283604,112.808258 66.656860,112.758926 70.932785,112.846230 
	C74.279526,112.800407 77.626266,112.754593 81.786423,112.883461 
	C89.759872,112.857788 95.618301,108.651741 99.573448,102.392059 
	C105.061485,93.706322 109.835289,84.556519 114.663429,75.471764 
	C117.245178,70.613869 118.084274,65.374832 115.919640,59.242107 
	C115.497093,57.805054 115.074547,56.368000 114.703781,54.518009 
	C114.558472,54.246365 114.331795,54.106850 113.769302,53.432125 
	C110.789177,48.192280 107.992432,42.836933 104.783096,37.741455 
	C100.652290,31.182972 97.668556,23.608644 89.665833,19.239088 
	C86.531998,18.492594 83.413368,17.188332 80.261528,17.102427 
	C70.123375,16.826109 59.967991,16.804451 49.828934,17.063566 
	C42.280960,17.256464 35.466526,20.113853 31.333208,26.524151 
	C25.615788,35.391205 20.606728,44.728191 15.547013,54.001808 
	C11.766303,60.931217 11.855389,68.079803 15.574512,75.092583 
	C17.555334,78.827621 19.400604,82.662102 21.704021,86.192711 
	C26.299702,93.236832 31.169123,100.102371 36.215271,107.662750 
	C38.819923,109.083237 41.424580,110.503723 44.358406,112.528587 
z"/>
<path fill="#3292E6" opacity="1.000000" stroke="none" 
	d="
M35.925484,107.041664 
	C31.169123,100.102371 26.299702,93.236832 21.704021,86.192711 
	C19.400604,82.662102 17.555334,78.827621 15.574512,75.092583 
	C11.855389,68.079803 11.766303,60.931217 15.547013,54.001808 
	C20.606728,44.728191 25.615788,35.391205 31.333208,26.524151 
	C35.466526,20.113853 42.280960,17.256464 49.828934,17.063566 
	C59.967991,16.804451 70.123375,16.826109 80.261528,17.102427 
	C83.413368,17.188332 86.531998,18.492594 89.773369,19.910080 
	C84.593811,29.564743 79.306709,38.548416 73.633560,47.647041 
	C70.762337,48.514805 68.277176,49.267616 65.549980,49.834579 
	C63.960106,48.727207 62.612259,47.805683 61.020069,46.541168 
	C59.034508,46.198170 57.293289,46.198170 55.481724,46.198170 
	C55.170250,44.371758 54.931255,42.970325 54.600845,41.032887 
	C52.899826,42.434830 51.574467,43.527164 50.161945,44.691330 
	C48.811859,43.500313 47.602715,42.433636 46.089844,41.099018 
	C45.503738,43.138508 45.014450,44.841087 44.529591,46.528267 
	C42.806374,46.347111 41.177219,46.175842 39.200947,45.968086 
	C39.932934,47.913788 40.549194,49.551876 41.193398,51.264233 
	C39.641182,52.199684 38.294228,53.011436 36.520660,54.080284 
	C38.371384,55.198959 39.714088,56.010559 40.961521,56.764576 
	C40.350765,59.068680 39.819664,61.072269 39.061100,63.346802 
	C37.205196,65.709572 35.559784,67.788490 33.956081,69.899109 
	C33.244987,70.834969 32.832623,72.193024 31.915176,72.742317 
	C28.372732,74.863266 28.792231,77.247940 31.224792,80.234818 
	C33.240944,82.686104 35.094669,84.851768 37.042068,87.348236 
	C39.373734,90.445961 41.611736,93.212891 43.862701,96.307068 
	C43.889320,97.069946 43.902977,97.505562 43.653465,98.148712 
	C40.902031,101.251389 38.413757,104.146523 35.925484,107.041664 
z"/>
<path fill="#2280D3" opacity="1.000000" stroke="none" 
	d="
M74.019615,47.532089 
	C79.306709,38.548416 84.593811,29.564743 89.972977,20.235237 
	C97.668556,23.608644 100.652290,31.182972 104.783096,37.741455 
	C107.992432,42.836933 110.789177,48.192280 113.961441,53.930832 
	C114.274857,54.641262 114.440994,54.808399 114.652008,54.930950 
	C115.074547,56.368000 115.497093,57.805054 115.753365,59.968918 
	C114.458588,65.965828 114.177872,71.619324 112.007622,76.418312 
	C108.545921,84.073044 103.981422,91.253235 99.593224,98.457436 
	C95.816948,104.657021 91.185638,109.992836 83.318390,111.113205 
	C82.477898,111.232903 81.752037,112.157539 80.973007,112.708771 
	C77.626266,112.754593 74.279526,112.800407 70.493286,112.420036 
	C71.144379,110.051987 71.897446,107.788956 73.385429,106.225250 
	C79.072792,100.248474 85.069122,94.566254 90.780403,88.611313 
	C92.180466,87.151520 92.937340,85.074875 94.321991,83.151749 
	C96.728691,81.017578 98.803329,79.013496 101.192535,76.930283 
	C105.851326,73.607414 102.010071,72.548935 99.971558,71.038986 
	C99.994041,71.062790 99.939720,71.099373 99.860779,70.804115 
	C99.375404,70.064766 98.968964,69.620674 98.685226,69.171082 
	C98.807922,69.165573 98.814804,69.411133 98.647842,69.176422 
	C98.165337,68.726341 97.849785,68.510963 97.575394,68.349289 
	C97.616547,68.402992 97.506042,68.481102 97.537216,68.112915 
	C95.328285,64.794456 93.088188,61.844189 90.805893,58.810772 
	C90.763702,58.727623 90.928825,58.640965 90.815659,58.348465 
	C90.484268,57.700611 90.266052,57.345257 89.825188,56.737400 
	C86.132805,50.498898 80.827553,47.707729 74.019615,47.532089 
z"/>
<path fill="#2075C1" opacity="1.000000" stroke="none" 
	d="
M93.989922,83.281822 
	C92.937340,85.074875 92.180466,87.151520 90.780403,88.611313 
	C85.069122,94.566254 79.072792,100.248474 73.385429,106.225250 
	C71.897446,107.788956 71.144379,110.051987 70.041954,112.351715 
	C66.656860,112.758926 63.283604,112.808258 59.494347,112.440613 
	C60.163235,110.404968 61.033298,108.577301 62.369923,107.203583 
	C68.394218,101.012047 74.613907,95.010155 80.613403,88.795311 
	C82.039162,87.318367 82.887207,85.283722 84.446823,83.414642 
	C87.925079,83.309723 90.957504,83.295776 93.989922,83.281822 
z"/>
<path fill="#2273C1" opacity="1.000000" stroke="none" 
	d="
M84.000992,83.505615 
	C82.887207,85.283722 82.039162,87.318367 80.613403,88.795311 
	C74.613907,95.010155 68.394218,101.012047 62.369923,107.203583 
	C61.033298,108.577301 60.163235,110.404968 59.041584,112.362015 
	C57.925724,112.751465 56.846630,112.802544 55.279755,112.486725 
	C54.193363,111.082222 53.594753,110.044617 53.176392,108.726929 
	C59.807907,101.894394 66.316177,95.396378 72.666206,88.747246 
	C74.071182,87.276100 74.916679,85.270645 76.454727,83.417557 
	C79.260109,83.384460 81.630547,83.445038 84.000992,83.505615 
z"/>
<path fill="#2280D3" opacity="1.000000" stroke="none" 
	d="
M52.996147,109.007011 
	C53.594753,110.044617 54.193363,111.082222 54.881287,112.405525 
	C52.613884,112.743523 50.257168,112.795815 47.346794,112.533005 
	C45.871838,112.120003 44.950539,112.022102 44.029236,111.924210 
	C41.424580,110.503723 38.819923,109.083237 36.070377,107.352203 
	C38.413757,104.146523 40.902031,101.251389 43.917679,98.323059 
	C45.290794,99.197090 46.136528,100.104309 47.161556,101.293159 
	C49.225945,104.052193 51.111046,106.529602 52.996147,109.007011 
z"/>
<path fill="#2075C1" opacity="1.000000" stroke="none" 
	d="
M81.379715,112.796112 
	C81.752037,112.157539 82.477898,111.232903 83.318390,111.113205 
	C91.185638,109.992836 95.816948,104.657021 99.593224,98.457436 
	C103.981422,91.253235 108.545921,84.073044 112.007622,76.418312 
	C114.177872,71.619324 114.458588,65.965828 115.793991,60.347885 
	C118.084274,65.374832 117.245178,70.613869 114.663429,75.471764 
	C109.835289,84.556519 105.061485,93.706322 99.573448,102.392059 
	C95.618301,108.651741 89.759872,112.857788 81.379715,112.796112 
z"/>
<path fill="#2075C1" opacity="1.000000" stroke="none" 
	d="
M44.193821,112.226395 
	C44.950539,112.022102 45.871838,112.120003 46.909657,112.464859 
	C46.136917,112.650734 45.247662,112.589661 44.193821,112.226395 
z"/>
<path fill="#2075C1" opacity="1.000000" stroke="none" 
	d="
M114.677887,54.724480 
	C114.440994,54.808399 114.274857,54.641262 114.088669,54.264503 
	C114.331795,54.106850 114.558472,54.246365 114.677887,54.724480 
z"/>
<path fill="#E2E2FE" opacity="1.000000" stroke="none" 
	d="
M84.446823,83.414642 
	C81.630547,83.445038 79.260109,83.384460 75.997429,83.321266 
	C70.744041,83.379158 66.382904,83.439674 61.573399,83.403122 
	C57.788956,83.379784 54.452869,83.453522 50.676628,83.412888 
	C47.543819,83.171875 44.851170,83.045219 42.024765,82.641098 
	C41.140018,81.673157 40.389023,80.982666 40.126476,80.243149 
	C45.251049,80.131424 49.915787,80.344444 54.508961,79.867821 
	C56.300396,79.681923 57.930759,77.943901 59.634491,76.912842 
	C58.592461,75.263824 57.821228,73.330177 56.450790,72.026344 
	C53.778027,69.483482 50.769962,67.293053 48.024422,64.653427 
	C48.914223,63.304745 49.680347,62.259312 50.757851,61.093582 
	C52.693600,60.201717 54.317970,59.430153 56.293198,58.671749 
	C58.496628,56.834133 60.349205,54.983353 62.467651,52.987076 
	C63.753021,51.901196 64.772514,50.960812 65.792007,50.020424 
	C68.277176,49.267616 70.762337,48.514805 73.633560,47.647041 
	C80.827553,47.707729 86.132805,50.498898 89.853348,57.069450 
	C90.379044,57.982994 90.653938,58.311981 90.928825,58.640965 
	C90.928825,58.640965 90.763702,58.727623 90.821541,59.261803 
	C91.069748,62.047806 91.260117,64.299629 91.441658,66.447044 
	C93.553474,67.155365 95.529755,67.818237 97.506042,68.481102 
	C97.506042,68.481102 97.616547,68.402992 97.706650,68.619217 
	C98.136101,69.027328 98.475456,69.219231 98.814804,69.411133 
	C98.814804,69.411133 98.807922,69.165573 98.778183,69.463898 
	C99.145531,70.207932 99.542625,70.653656 99.939720,71.099373 
	C99.939720,71.099373 99.994041,71.062790 100.025757,71.415794 
	C100.330971,73.515671 100.604462,75.262535 100.877960,77.009407 
	C98.803329,79.013496 96.728691,81.017578 94.321991,83.151749 
	C90.957504,83.295776 87.925079,83.309723 84.446823,83.414642 
z"/>
<path fill="#FCFDFF" opacity="1.000000" stroke="none" 
	d="
M47.900742,64.956688 
	C50.769962,67.293053 53.778027,69.483482 56.450790,72.026344 
	C57.821228,73.330177 58.592461,75.263824 59.634491,76.912842 
	C57.930759,77.943901 56.300396,79.681923 54.508961,79.867821 
	C49.915787,80.344444 45.251049,80.131424 39.702393,80.228317 
	C36.214031,80.158073 33.638199,80.053642 31.062370,79.949203 
	C28.792231,77.247940 28.372732,74.863266 31.915176,72.742317 
	C32.832623,72.193024 33.244987,70.834969 33.956081,69.899109 
	C35.559784,67.788490 37.205196,65.709572 39.407028,63.338978 
	C42.620529,63.692364 45.260635,64.324524 47.900742,64.956688 
z"/>
<path fill="#F4D238" opacity="1.000000" stroke="none" 
	d="
M48.024422,64.653427 
	C45.260635,64.324524 42.620529,63.692364 39.634491,63.068031 
	C39.819664,61.072269 40.350765,59.068680 40.961521,56.764576 
	C39.714088,56.010559 38.371384,55.198959 36.520660,54.080284 
	C38.294228,53.011436 39.641182,52.199684 41.193398,51.264233 
	C40.549194,49.551876 39.932934,47.913788 39.200947,45.968086 
	C41.177219,46.175842 42.806374,46.347111 44.529591,46.528267 
	C45.014450,44.841087 45.503738,43.138508 46.089844,41.099018 
	C47.602715,42.433636 48.811859,43.500313 50.161945,44.691330 
	C51.574467,43.527164 52.899826,42.434830 54.600845,41.032887 
	C54.931255,42.970325 55.170250,44.371758 55.481724,46.198170 
	C57.293289,46.198170 59.034508,46.198170 60.794861,46.821991 
	C60.191006,48.677967 59.568008,49.910130 58.924122,51.183609 
	C60.273090,51.985733 61.237434,52.559155 62.201782,53.132576 
	C60.349205,54.983353 58.496628,56.834133 56.400089,58.314209 
	C56.382801,57.149204 57.014782,56.185448 56.765831,55.590008 
	C55.701469,53.044281 54.918423,49.929588 52.960087,48.365421 
	C51.623203,47.297630 47.560081,47.578785 46.425468,48.819824 
	C44.837734,50.556480 43.760895,54.112350 44.469021,56.215252 
	C45.175877,58.314381 48.352566,59.581821 50.446472,61.213882 
	C49.680347,62.259312 48.914223,63.304745 48.024422,64.653427 
z"/>
<path fill="#376EC2" opacity="1.000000" stroke="none" 
	d="
M51.116787,83.527252 
	C54.452869,83.453522 57.788956,83.379784 61.559605,83.745750 
	C56.990200,89.794151 51.986233,95.402840 46.982262,101.011536 
	C46.136528,100.104309 45.290794,99.197090 44.180847,98.115524 
	C43.902977,97.505562 43.889320,97.069946 44.114906,96.072044 
	C46.608356,91.515587 48.862572,87.521423 51.116787,83.527252 
z"/>
<path fill="#547FD6" opacity="1.000000" stroke="none" 
	d="
M50.676628,83.412888 
	C48.862572,87.521423 46.608356,91.515587 44.101940,95.744781 
	C41.611736,93.212891 39.373734,90.445961 37.321209,87.168304 
	C39.057297,85.411232 40.607906,84.164894 42.158516,82.918556 
	C44.851170,83.045219 47.543819,83.171875 50.676628,83.412888 
z"/>
<path fill="#657DE5" opacity="1.000000" stroke="none" 
	d="
M42.024765,82.641098 
	C40.607906,84.164894 39.057297,85.411232 37.227539,86.837502 
	C35.094669,84.851768 33.240944,82.686104 31.224792,80.234818 
	C33.638199,80.053642 36.214031,80.158073 39.213943,80.277344 
	C40.389023,80.982666 41.140018,81.673157 42.024765,82.641098 
z"/>
<path fill="#3E85C8" opacity="1.000000" stroke="none" 
	d="
M62.467651,52.987076 
	C61.237434,52.559155 60.273090,51.985733 58.924122,51.183609 
	C59.568008,49.910130 60.191006,48.677967 61.039207,47.164986 
	C62.612259,47.805683 63.960106,48.727207 65.549980,49.834579 
	C64.772514,50.960812 63.753021,51.901196 62.467651,52.987076 
z"/>
<path fill="#397BC6" opacity="1.000000" stroke="none" 
	d="
M97.537216,68.112915 
	C95.529755,67.818237 93.553474,67.155365 91.441658,66.447044 
	C91.260117,64.299629 91.069748,62.047806 90.863739,59.344952 
	C93.088188,61.844189 95.328285,64.794456 97.537216,68.112915 
z"/>
<path fill="#2075C1" opacity="1.000000" stroke="none" 
	d="
M101.192535,76.930283 
	C100.604462,75.262535 100.330971,73.515671 100.003281,71.391983 
	C102.010071,72.548935 105.851326,73.607414 101.192535,76.930283 
z"/>
<path fill="#397BC6" opacity="1.000000" stroke="none" 
	d="
M99.860779,70.804115 
	C99.542625,70.653656 99.145531,70.207932 98.655479,69.469398 
	C98.968964,69.620674 99.375404,70.064766 99.860779,70.804115 
z"/>
<path fill="#397BC6" opacity="1.000000" stroke="none" 
	d="
M98.647842,69.176422 
	C98.475456,69.219231 98.136101,69.027328 97.665489,68.565506 
	C97.849785,68.510963 98.165337,68.726341 98.647842,69.176422 
z"/>
<path fill="#397BC6" opacity="1.000000" stroke="none" 
	d="
M90.815659,58.348465 
	C90.653938,58.311981 90.379044,57.982994 90.075989,57.321960 
	C90.266052,57.345257 90.484268,57.700611 90.815659,58.348465 
z"/>
<path fill="#296FBF" opacity="1.000000" stroke="none" 
	d="
M47.161552,101.293152 
	C51.986233,95.402840 56.990200,89.794151 62.007965,83.842819 
	C66.382904,83.439674 70.744041,83.379158 75.562485,83.414932 
	C74.916679,85.270645 74.071182,87.276100 72.666206,88.747246 
	C66.316177,95.396378 59.807907,101.894394 53.176392,108.726929 
	C51.111046,106.529602 49.225945,104.052193 47.161552,101.293152 
z"/>
<path fill="#FFF832" opacity="1.000000" stroke="none" 
	d="
M50.757847,61.093582 
	C48.352566,59.581821 45.175877,58.314381 44.469021,56.215252 
	C43.760895,54.112350 44.837734,50.556480 46.425468,48.819824 
	C47.560081,47.578785 51.623203,47.297630 52.960087,48.365421 
	C54.918423,49.929588 55.701469,53.044281 56.765831,55.590008 
	C57.014782,56.185448 56.382801,57.149204 56.049232,58.301041 
	C54.317970,59.430153 52.693600,60.201717 50.757847,61.093582 
z"/>
</svg>